<mxfile host="65bd71144e" pages="2">
    <diagram id="rLbMoNr7zAscQaCv0aqm" name="Ping pong">
        <mxGraphModel dx="1116" dy="1535" grid="1" gridSize="10" guides="1" tooltips="1" connect="1" arrows="1" fold="1" page="1" pageScale="1" pageWidth="850" pageHeight="1100" math="0" shadow="0">
            <root>
                <mxCell id="0"/>
                <mxCell id="1" parent="0"/>
                <mxCell id="f5pZBpLLpVTP7D2-oAfJ-12" style="edgeStyle=orthogonalEdgeStyle;rounded=0;orthogonalLoop=1;jettySize=auto;html=1;entryX=0.5;entryY=0;entryDx=0;entryDy=0;" parent="1" source="uuNMJwLHAio3QjSqiXxN-1" target="f5pZBpLLpVTP7D2-oAfJ-6" edge="1">
                    <mxGeometry relative="1" as="geometry"/>
                </mxCell>
                <mxCell id="f5pZBpLLpVTP7D2-oAfJ-20" style="edgeStyle=orthogonalEdgeStyle;rounded=0;orthogonalLoop=1;jettySize=auto;html=1;entryX=0.5;entryY=0;entryDx=0;entryDy=0;" parent="1" source="uuNMJwLHAio3QjSqiXxN-1" target="f5pZBpLLpVTP7D2-oAfJ-16" edge="1">
                    <mxGeometry relative="1" as="geometry"/>
                </mxCell>
                <mxCell id="uuNMJwLHAio3QjSqiXxN-1" value="-&amp;gt;" style="rounded=0;whiteSpace=wrap;html=1;strokeColor=default;" parent="1" vertex="1">
                    <mxGeometry x="705" y="130" width="120" height="60" as="geometry"/>
                </mxCell>
                <mxCell id="uuNMJwLHAio3QjSqiXxN-2" value="Ping" style="whiteSpace=wrap;html=1;strokeColor=default;rounded=0;" parent="1" vertex="1">
                    <mxGeometry x="40" y="110" width="120" height="60" as="geometry"/>
                </mxCell>
                <mxCell id="anxLW6ghgMa5-0h3lLwf-2" value="Pong 1" style="rounded=0;whiteSpace=wrap;html=1;strokeColor=default;" parent="1" vertex="1">
                    <mxGeometry x="670" y="350" width="120" height="60" as="geometry"/>
                </mxCell>
                <mxCell id="f5pZBpLLpVTP7D2-oAfJ-2" style="edgeStyle=orthogonalEdgeStyle;rounded=0;orthogonalLoop=1;jettySize=auto;html=1;entryX=0.5;entryY=0;entryDx=0;entryDy=0;exitX=0;exitY=0.5;exitDx=0;exitDy=0;" parent="1" source="f5pZBpLLpVTP7D2-oAfJ-21" target="uuNMJwLHAio3QjSqiXxN-2" edge="1">
                    <mxGeometry relative="1" as="geometry">
                        <mxPoint x="200" y="-30" as="sourcePoint"/>
                    </mxGeometry>
                </mxCell>
                <mxCell id="f5pZBpLLpVTP7D2-oAfJ-8" style="edgeStyle=orthogonalEdgeStyle;rounded=0;orthogonalLoop=1;jettySize=auto;html=1;" parent="1" source="f5pZBpLLpVTP7D2-oAfJ-6" edge="1">
                    <mxGeometry relative="1" as="geometry">
                        <mxPoint x="470" y="350" as="targetPoint"/>
                    </mxGeometry>
                </mxCell>
                <mxCell id="f5pZBpLLpVTP7D2-oAfJ-11" style="edgeStyle=orthogonalEdgeStyle;rounded=0;orthogonalLoop=1;jettySize=auto;html=1;entryX=0.5;entryY=0;entryDx=0;entryDy=0;" parent="1" source="f5pZBpLLpVTP7D2-oAfJ-6" target="anxLW6ghgMa5-0h3lLwf-2" edge="1">
                    <mxGeometry relative="1" as="geometry"/>
                </mxCell>
                <mxCell id="f5pZBpLLpVTP7D2-oAfJ-6" value="?" style="rounded=0;whiteSpace=wrap;html=1;strokeColor=default;" parent="1" vertex="1">
                    <mxGeometry x="540" y="240" width="120" height="60" as="geometry"/>
                </mxCell>
                <mxCell id="f5pZBpLLpVTP7D2-oAfJ-7" value="CountHigherThanBefore?" style="rounded=0;whiteSpace=wrap;html=1;strokeColor=default;" parent="1" vertex="1">
                    <mxGeometry x="390" y="460" width="160" height="90" as="geometry"/>
                </mxCell>
                <mxCell id="f5pZBpLLpVTP7D2-oAfJ-10" style="edgeStyle=orthogonalEdgeStyle;rounded=0;orthogonalLoop=1;jettySize=auto;html=1;" parent="1" source="f5pZBpLLpVTP7D2-oAfJ-9" edge="1">
                    <mxGeometry relative="1" as="geometry">
                        <mxPoint x="470" y="460" as="targetPoint"/>
                    </mxGeometry>
                </mxCell>
                <mxCell id="f5pZBpLLpVTP7D2-oAfJ-9" value="Inverter" style="rounded=0;whiteSpace=wrap;html=1;strokeColor=#82b366;fillColor=#d5e8d4;" parent="1" vertex="1">
                    <mxGeometry x="410" y="350" width="120" height="60" as="geometry"/>
                </mxCell>
                <mxCell id="f5pZBpLLpVTP7D2-oAfJ-13" value="Pong 2" style="rounded=0;whiteSpace=wrap;html=1;strokeColor=default;" parent="1" vertex="1">
                    <mxGeometry x="1105" y="350" width="120" height="60" as="geometry"/>
                </mxCell>
                <mxCell id="f5pZBpLLpVTP7D2-oAfJ-14" style="edgeStyle=orthogonalEdgeStyle;rounded=0;orthogonalLoop=1;jettySize=auto;html=1;" parent="1" source="f5pZBpLLpVTP7D2-oAfJ-16" edge="1">
                    <mxGeometry relative="1" as="geometry">
                        <mxPoint x="905" y="350" as="targetPoint"/>
                    </mxGeometry>
                </mxCell>
                <mxCell id="f5pZBpLLpVTP7D2-oAfJ-15" style="edgeStyle=orthogonalEdgeStyle;rounded=0;orthogonalLoop=1;jettySize=auto;html=1;entryX=0.5;entryY=0;entryDx=0;entryDy=0;" parent="1" source="f5pZBpLLpVTP7D2-oAfJ-16" target="f5pZBpLLpVTP7D2-oAfJ-13" edge="1">
                    <mxGeometry relative="1" as="geometry"/>
                </mxCell>
                <mxCell id="f5pZBpLLpVTP7D2-oAfJ-16" value="?" style="rounded=0;whiteSpace=wrap;html=1;strokeColor=default;" parent="1" vertex="1">
                    <mxGeometry x="975" y="240" width="120" height="60" as="geometry"/>
                </mxCell>
                <mxCell id="f5pZBpLLpVTP7D2-oAfJ-17" value="CountHigherThanBefore?" style="rounded=0;whiteSpace=wrap;html=1;strokeColor=default;" parent="1" vertex="1">
                    <mxGeometry x="825" y="460" width="160" height="90" as="geometry"/>
                </mxCell>
                <mxCell id="f5pZBpLLpVTP7D2-oAfJ-18" style="edgeStyle=orthogonalEdgeStyle;rounded=0;orthogonalLoop=1;jettySize=auto;html=1;" parent="1" source="f5pZBpLLpVTP7D2-oAfJ-19" target="f5pZBpLLpVTP7D2-oAfJ-17" edge="1">
                    <mxGeometry relative="1" as="geometry"/>
                </mxCell>
                <mxCell id="f5pZBpLLpVTP7D2-oAfJ-19" value="Inverter" style="rounded=0;whiteSpace=wrap;html=1;strokeColor=#82b366;fillColor=#d5e8d4;" parent="1" vertex="1">
                    <mxGeometry x="845" y="350" width="120" height="60" as="geometry"/>
                </mxCell>
                <mxCell id="f5pZBpLLpVTP7D2-oAfJ-23" style="edgeStyle=orthogonalEdgeStyle;rounded=0;orthogonalLoop=1;jettySize=auto;html=1;" parent="1" source="f5pZBpLLpVTP7D2-oAfJ-21" target="uuNMJwLHAio3QjSqiXxN-1" edge="1">
                    <mxGeometry relative="1" as="geometry"/>
                </mxCell>
                <mxCell id="xXGTEIVUqW1s6roGTMRh-1" style="edgeStyle=none;html=1;entryX=0.5;entryY=0;entryDx=0;entryDy=0;exitX=0.5;exitY=1;exitDx=0;exitDy=0;rounded=0;" parent="1" source="f5pZBpLLpVTP7D2-oAfJ-21" target="f5pZBpLLpVTP7D2-oAfJ-24" edge="1">
                    <mxGeometry relative="1" as="geometry">
                        <Array as="points">
                            <mxPoint x="380" y="40"/>
                            <mxPoint x="290" y="40"/>
                        </Array>
                    </mxGeometry>
                </mxCell>
                <mxCell id="f5pZBpLLpVTP7D2-oAfJ-21" value="-&amp;gt;" style="rounded=0;whiteSpace=wrap;html=1;" parent="1" vertex="1">
                    <mxGeometry x="320" y="-80" width="120" height="60" as="geometry"/>
                </mxCell>
                <mxCell id="f5pZBpLLpVTP7D2-oAfJ-27" value="" style="edgeStyle=orthogonalEdgeStyle;rounded=0;orthogonalLoop=1;jettySize=auto;html=1;" parent="1" source="f5pZBpLLpVTP7D2-oAfJ-24" target="f5pZBpLLpVTP7D2-oAfJ-26" edge="1">
                    <mxGeometry relative="1" as="geometry"/>
                </mxCell>
                <mxCell id="f5pZBpLLpVTP7D2-oAfJ-28" value="" style="edgeStyle=orthogonalEdgeStyle;rounded=0;orthogonalLoop=1;jettySize=auto;html=1;" parent="1" source="f5pZBpLLpVTP7D2-oAfJ-24" target="f5pZBpLLpVTP7D2-oAfJ-26" edge="1">
                    <mxGeometry relative="1" as="geometry"/>
                </mxCell>
                <mxCell id="f5pZBpLLpVTP7D2-oAfJ-30" value="" style="edgeStyle=orthogonalEdgeStyle;rounded=0;orthogonalLoop=1;jettySize=auto;html=1;" parent="1" source="f5pZBpLLpVTP7D2-oAfJ-24" target="f5pZBpLLpVTP7D2-oAfJ-29" edge="1">
                    <mxGeometry relative="1" as="geometry"/>
                </mxCell>
                <mxCell id="f5pZBpLLpVTP7D2-oAfJ-24" value="?" style="rounded=0;whiteSpace=wrap;html=1;" parent="1" vertex="1">
                    <mxGeometry x="230" y="110" width="120" height="60" as="geometry"/>
                </mxCell>
                <mxCell id="f5pZBpLLpVTP7D2-oAfJ-26" value="IsPongSetup?" style="rounded=0;whiteSpace=wrap;html=1;fillColor=#f8cecc;strokeColor=#b85450;" parent="1" vertex="1">
                    <mxGeometry x="165" y="230" width="120" height="60" as="geometry"/>
                </mxCell>
                <mxCell id="f5pZBpLLpVTP7D2-oAfJ-29" value="SetupPong" style="rounded=0;whiteSpace=wrap;html=1;" parent="1" vertex="1">
                    <mxGeometry x="295" y="230" width="120" height="60" as="geometry"/>
                </mxCell>
                <mxCell id="f5pZBpLLpVTP7D2-oAfJ-31" value="Deze fallback is overbodig in py_trees" style="text;html=1;align=center;verticalAlign=middle;resizable=0;points=[];autosize=1;strokeColor=none;fillColor=none;" parent="1" vertex="1">
                    <mxGeometry x="180" y="60" width="220" height="20" as="geometry"/>
                </mxCell>
                <mxCell id="xXGTEIVUqW1s6roGTMRh-2" value="ook ping setup leaf?" style="text;html=1;align=center;verticalAlign=middle;resizable=0;points=[];autosize=1;strokeColor=none;fillColor=none;" parent="1" vertex="1">
                    <mxGeometry x="40" y="50" width="120" height="20" as="geometry"/>
                </mxCell>
            </root>
        </mxGraphModel>
    </diagram>
</mxfile>